# xmcd
#
# Track frame offsets:
#	150
#	14100
#	27000
#	41400
#	55950
#	72225
#	84150
#	99975
#	110700
#	125475
#	140400
#	155700
#	176100
#	189300
#	207300
#	217650
#	232575
#	246225
#
# Disc length: 3444 seconds
#
# Revision: 1
# Processed by: cddbd v1.5.1PL0 Copyright (c) Steve Scherf et al.
# Submitted via: audiograbber 1.83.01
#
DISCID=f20d7212
DTITLE=Pioneer CD+G - PI210
DYEAR=1994
DGENRE=Karaoke
TTITLE0=Reid, Mike - Walk On Faith
TTITLE1=Gill, Vince - Liza Jane
TTITLE2=Bogguss, Suzy - Outbound Plane
TTITLE3=Alabama - I'm In A Hurry And I Don't Know Why
TTITLE4=Dean, Billy - Only The Wind
TTITLE5=Young, Faron - Hello Walls
TTITLE6=Parton, Dolly - Heartbreaker
TTITLE7=West, Dottie - Country Sunshine
TTITLE8=Fargo, Donna - You Can't Be A Beacon
TTITLE9=Lewis, Jerry Lee - Thirty Nine And Holding
TTITLE10=Highway 101 - Somewhere Tonight
TTITLE11=Gayle, Crystal - Cry
TTITLE12=McDowell, Ronnie - Older Women
TTITLE13=Sheppard, T.G. - Last Cheater's Waltz, The
TTITLE14=Haggard, Merle - Mama Tried
TTITLE15=Shelton, Ricky Van - Somebody Lied
TTITLE16=Anderson, Lynn - How Can I Unlove You
TTITLE17=Reed, Jerry - When You're Hot, You're Hot
EXTD=©1994 Pioneer LDCA, Inc
EXTT0=
EXTT1=
EXTT2=
EXTT3=
EXTT4=
EXTT5=
EXTT6=
EXTT7=
EXTT8=
EXTT9=
EXTT10=
EXTT11=
EXTT12=
EXTT13=
EXTT14=
EXTT15=
EXTT16=
EXTT17=
PLAYORDER=
